<svg xmlns="http://www.w3.org/2000/svg" viewBox="0 0 150 150" width="100%" version="1.0">
  <path
    d="M61.5 2.4c-15.8 3.1-27.6 9.4-39 21C8.5 37.6 1.8 53.9 1.9 74c0 33.2 19.8 60.1 51.6 70.2 8.7 2.8 25 3.5 34.7 1.5 31.9-6.6 54.3-31.4 57.7-63.8.6-5.8.9-11.2.7-12-.3-.8-.7-3.9-1-6.9-2.1-21.4-20.5-46-41.3-55.2-13-5.7-30.2-7.8-42.8-5.4zM83 48.7c19 6.1 24.2 32 9.2 45.5-5.8 5.2-10.5 7.1-18.2 7.1-10.4 0-18.2-4.7-23.8-14.2-2.3-4-2.7-5.7-2.7-12.6 0-7.1.4-8.6 3.1-13.5C57.1 49.4 70 44.5 83 48.7z" />
  <path
    d="M70.9 58.9c-2.2 1.8-2.3 2.1-.8 3.6 2.2 2.3 6.2.4 5.7-2.7-.4-2.9-2.1-3.2-4.9-.9zM76 66.5c-1.6 1.9-.6 4.5 1.8 4.5 2.5 0 4.6-2.5 3.8-4.5-.7-1.9-4-1.9-5.6 0zM66.2 72.7c-1.2 2.4-.4 4.3 1.7 4.3 2.2 0 4.1-1.9 4.1-4.2 0-2.4-4.6-2.4-5.8-.1zM82.3 72.7c-1.5.6-1.7 4.9-.3 5.8 1.5 1 5-1.4 5-3.4 0-1.5-2.3-3.5-3.3-3-.1 0-.8.3-1.4.6zM71.7 79.7c-1 1-.8 4.1.3 4.8 2 1.2 5-.6 5-3.1 0-1.8-.5-2.4-2.3-2.4-1.3 0-2.7.3-3 .7zM62 87c-1.3 2.4-.5 4 1.9 4s4.5-2.5 3.7-4.5c-.8-2.2-4.3-1.8-5.6.5z" />
</svg>