<svg xmlns="http://www.w3.org/2000/svg" viewBox="0 0 150 150" width="100%" version="1.0">
  <path
    d="M59 2.6c-15.2 3.1-31.5 12.9-41.4 25C-15 67.2 2.5 127.3 51.5 143.7c7.2 2.5 9.4 2.7 22 2.7 12.5 0 14.9-.3 22-2.7 19.9-6.7 35-19.9 43.7-38.4 5.3-11.3 7.1-21 6.6-34.8-1-23.7-12.3-43.7-32.2-57C97.8 3 77.1-1.1 59 2.6zm37.3 4.9c21.1 7.4 38 25.2 44.8 47.5 1.9 5.9 2.3 9.8 2.3 18.5 0 13.4-1.3 19.3-6.9 31-9.2 18.9-23.6 31.2-44.5 37.7-5.9 1.8-9.7 2.3-18 2.3-19.2-.1-34.7-6.4-48.4-19.5-12.7-12.2-18.4-23.3-21.2-40.9C3.1 75.5 3 72.5 4 65.7c4.3-30 23.8-51.9 53.5-60.3 3.5-1 8.9-1.3 18-1 11 .3 14.2.8 20.8 3.1z" />
  <path
    d="M60.7 12.1c-7.8 1.8-7.8 1.9-7.1 11.8.7 9.9 1.1 9.1-8.5 16.5-9.1 7.1-14.3 15-15.5 24.1-1.1 7.7-1.4 8.3-5.4 9.5-6.5 2.1-8.2 3.7-8.2 7.6 0 7.9 2.7 8.9 13.4 4.9 9.2-3.5 12.1-3.2 21.3 1.6 13.9 7.4 15.4 8 21.2 9.1 3.1.6 6.2 1.2 6.9 1.4 2.1.6 1.3 3.4-1.3 4.6-3.6 1.6-12.7-1.1-25.4-7.8-11.8-6.1-14.9-6.6-23.5-3.4-10.7 4.1-13 8.3-8.4 15.9C22.8 112.3 31 121 32.5 121c.6 0 3.8-2 6.9-4.5 6.8-5.3 9.1-5.5 16.9-2 3 1.4 8.8 3.2 12.7 3.9 7.7 1.5 10.9 1.1 21.9-2.8l4.4-1.6 3.8 3.5c2.4 2.2 4.9 3.5 6.6 3.5 2.8 0 8.3-4.4 8.3-6.6 0-.7-3-3.8-6.6-7-9.1-8-9.7-9.4-10.5-25.4-.4-8.9-1.2-15-2.4-18-3-8.1-3.1-9.2-.4-8.8 5.4.7 8.9 13.7 8.9 33.1v7.8l4.4 4.3c5.1 5.2 8.3 7.4 12.2 8.5 4.4 1.2 7.1-.3 9.7-5.6 2.4-4.6 5.7-14.5 5.7-16.7 0-.6-3.2-2.4-7.1-4-8.4-3.5-10-5.5-11.1-14.5-.4-3.6-1.8-9.5-3-13.1-1.9-5.5-3.4-7.6-9.4-13.3l-7.1-6.9.9-4.6c1.3-7 .5-8.8-4.8-10.8-4.5-1.7-4.7-1.7-6 .1-.8 1-1.6 3.5-1.9 5.4-1.1 7.3-2.6 12.7-4.4 15.1-1.8 2.5-7 6.4-18.1 13.3-3.4 2.2-7.7 6.1-9.8 8.8-3.9 5.3-7.2 6.5-7.2 2.6 0-5.3 7.2-12.5 20.2-20.3 11.2-6.6 12.9-9 14.3-20.1.9-7.1 0-10.8-3.1-12.2-2.9-1.3-11.2-1.3-16.7 0zM80.9 63c5.6 3 7.7 11.8 4.1 17.7-5.5 9-16.8 9.3-22.7.4-8-11.9 5.6-25.1 18.6-18.1z" />
</svg>