<svg xmlns="http://www.w3.org/2000/svg" viewBox="0 0 142 129" width="100%" version="1.0">
  <path
    d="M81.4 2.8c-1.2 1-2.6 2.7-3.1 3.7-1.2 2.2-36.5 94-39.4 102.4-2.2 6.3-2.4 10-.7 13.6 2.2 4.9 9.6 6.9 15.3 4.3 3.4-1.5 6.2-7.7 18-39.3C76.8 73.2 85.2 51 90.1 38.3c10.2-26.6 10.6-29.2 5.6-34.1C93 1.6 91.6 1 88 1c-2.8.1-5.3.7-6.6 1.8zM124.3 14c-3.2 1.3-4.6 3.9-11.3 22-3.4 9.1-10.2 27.1-15.2 40-5 12.9-9.3 25.6-9.6 28.2-.4 4.4-.2 5 3.2 8.4 3.4 3.4 4 3.6 8.2 3.1 3-.3 5.5-1.3 7-2.8 2.8-2.9 33.4-82.2 34.2-88.6.4-3.8.1-4.6-3.1-7.8-2.8-2.8-4.2-3.5-7.3-3.4-2.2 0-4.9.4-6.1.9zM25.2 29.5c-1.6 1.3-3.7 4.6-4.7 7.2-1 2.6-5.8 15.3-10.6 28C.5 89.3-.6 94.5 2.8 98.6c4.9 6.1 14.8 5.9 18.4-.4 3.4-5.9 21.9-56.6 22-60.2 0-4.7-1.5-7.6-5.2-9.5-4.4-2.3-9.4-1.9-12.8 1z" />
</svg>