<svg xmlns="http://www.w3.org/2000/svg" viewBox="0 0 120 155" width="100%" version="1.0">
  <path
    d="M49.5 2.2c-2.7.5-8.6 2.7-13.1 4.8-14 6.7-25.5 21.8-28.4 36.9-.5 2.9-1 11.7-1 19.4 0 14 0 14.1-2.7 17l-2.8 2.8-.3 17.5c-.3 14.7-.1 17.9 1.3 20 .8 1.3 2.2 2.4 3 2.4.8 0 1.5.6 1.5 1.4 0 .7 1.2 2.5 2.6 4 3.3 3.2 9 3.5 12.5.7l2.4-1.9.5-40.4.5-40.3 3.3-6.7c4-8.2 11.1-14.9 19-17.8 7.8-3 20.5-2.6 27.5.8 6.3 3.2 12.9 9.8 16.3 16.3 2.6 5.1 2.8 6.5 3.6 23.9.4 10.2.5 27.3.1 38.1-.6 21 0 25.6 4 28.4 3.3 2.3 9 1.9 11.5-.8 1.2-1.3 2.2-2.7 2.2-3.1 0-.4 1.4-2.1 3.1-3.7l3-2.8-.3-17.9c-.3-17.8-.3-17.8-3-21.1-2.8-3.2-2.8-3.3-2.8-19 0-11.5-.4-17.2-1.6-21.2C103.5 13.1 77.1-3 49.5 2.2z" />
  <path
    d="M53.6 45.1 51 48.2v40.7c0 30.3.3 41 1.2 41.9 1.6 1.6 14 1.6 15.6 0 .9-.9 1.2-11.7 1.2-42.5V46.9l-2.5-2.4c-3.7-3.8-9.5-3.5-12.9.6zM78.8 72.9c-5.6 2.8-5.8 3.6-5.8 38.3 0 30.5.1 31.9 2 33.8 1.5 1.5 3.3 2 7.1 2 9.6 0 8.9 2.7 8.9-36.4V76.3l-2.2-2c-3.3-2.9-6.2-3.3-10-1.4zM33.2 72.7c-.7.3-1.9 1.8-2.7 3.3-1.2 2.4-1.5 8.7-1.5 35.3 0 37.4-.4 35.7 9.2 35.7 9.2 0 8.8 1.6 8.8-36.9V76.9l-2.5-2.4c-2.3-2.4-7.7-3.3-11.3-1.8z" />
</svg>