<svg xmlns="http://www.w3.org/2000/svg" viewBox="0 0 125 145" width="100%" version="1.0">
  <path
    d="M84.8 1.4C72.5 4.7 62 17.9 62 30c0 3.8.1 4 3.3 4 4.6 0 12.5-4 17.2-8.7 5.4-5.5 8.8-12.5 9.3-19.6.5-6.4.6-6.3-7-4.3zM28.5 35.9C14 39.8 4.7 50.8 1.9 67.3.5 75.9 1.2 91 3.5 99.5c4 14.7 15.5 32.8 26 40.9 6.8 5.1 11.9 5.6 19.8 2 5.4-2.5 7.4-2.9 15.2-2.9 7.3 0 10.1.5 15 2.5 9.1 3.8 13 3.4 19.9-1.9 3.1-2.4 7.7-6.9 10.1-10 4.6-5.8 12.5-19.8 12.5-22.3 0-.7-1.6-2.2-3.6-3.3-5.3-2.8-12-10.8-14.3-17.1-4.4-11.7-1.7-23.8 7.5-33.3 3-3 5.4-5.8 5.4-6.2 0-1.4-8.7-7.9-13.6-10.1-3.9-1.8-6.7-2.3-13.9-2.3-7.9 0-9.8.4-15.5 3-8.4 3.8-13.6 3.8-21.5.1-6.4-3-18-4.3-24-2.7z" />
</svg>