<?xml version="1.0" encoding="utf-8"?>
<!-- Generator: Adobe Illustrator 24.0.1, SVG Export Plug-In . SVG Version: 6.00 Build 0)  -->
<svg version="1.1" id="Layer_1" xmlns="http://www.w3.org/2000/svg" xmlns:xlink="http://www.w3.org/1999/xlink" x="0px" y="0px"
	 viewBox="0 0 841.89 595.28" style="enable-background:new 0 0 841.89 595.28;" xml:space="preserve">
<style type="text/css">
	.st0{fill:#FFFFFF;}
</style>
<g>
	<g>
		<g>
			<path class="st0" d="M564.53,331.39c-0.53,0.31-0.7,1.01-0.37,1.53c13.16,20.27,36.78,31.68,60.97,29.23
				c9.33-0.95,18.19-3.86,26.34-8.66c24.25-14.29,36.41-42.57,30.41-69.77c-0.16-0.72-0.98-1.07-1.62-0.69l-52.19,30.76l-0.5,0.29
				c-0.52,0.3-1.18,0.13-1.49-0.38l-0.29-0.5l-7.29-12.36c-0.3-0.52-0.97-0.69-1.49-0.38L564.53,331.39z"/>
		</g>
		<g>
			<path class="st0" d="M555.22,311.52c0.16,0.72,0.98,1.07,1.62,0.69l52.18-30.76l0.5-0.29c0.52-0.3,1.18-0.13,1.49,0.38l0.29,0.5
				l7.29,12.36c0.3,0.52,0.97,0.69,1.49,0.38l52.49-30.94c0.53-0.31,0.7-1.01,0.37-1.53c-13.16-20.25-36.78-31.65-60.95-29.2
				c-9.33,0.95-18.19,3.86-26.34,8.66C561.4,256.07,549.24,284.33,555.22,311.52z"/>
		</g>
	</g>
	<path class="st0" d="M351.08,236.95c-0.59,0-1.07,0.48-1.07,1.07v48.93v70.32c0,0.59,0.48,1.07,1.07,1.07h39.81
		c0.59,0,1.07-0.48,1.07-1.07v-70.32v-48.93c0-0.59-0.48-1.07-1.07-1.07H351.08z"/>
	<path class="st0" d="M456.05,294.22l-0.76,1.08l-43.22,61.36c-0.49,0.7,0.01,1.66,0.86,1.66h43.37c0.36,0,0.69-0.18,0.89-0.48
		l20.23-31.18l1.56-2.41l1.58,2.4l20.47,31.19c0.2,0.3,0.53,0.48,0.88,0.48h43.39c0.86,0,1.36-0.96,0.86-1.66l-43.22-61.36
		l-0.76-1.08l0.76-1.08l38.37-54.53c0.49-0.7-0.01-1.66-0.86-1.66H497.3c-0.36,0-0.69,0.18-0.89,0.48l-15.85,24.6l-1.59,2.46
		l-1.57-2.47l-15.63-24.59c-0.19-0.3-0.53-0.49-0.89-0.49h-43.11c-0.86,0-1.36,0.96-0.86,1.66l38.37,54.53L456.05,294.22z"/>
	<path class="st0" d="M159.55,236.94c-0.59,0-1.07,0.48-1.07,1.07v119.25c0,0.59,0.48,1.07,1.07,1.07h39.8
		c0.59,0,1.07-0.48,1.07-1.07v-66.19L233.14,330c0.43,0.51,1.21,0.51,1.63,0l32.73-39.15v66.41c0,0.59,0.48,1.07,1.07,1.07h39.8
		c0.59,0,1.07-0.48,1.07-1.07V238.01c0-0.59-0.48-1.07-1.07-1.07h-46.05c-0.32,0-0.62,0.14-0.82,0.39l-26.08,31.83l-1.45,1.77
		l-1.45-1.77l-26.08-31.83c-0.2-0.25-0.51-0.39-0.82-0.39H159.55z"/>
</g>
</svg>
