<?xml version="1.0" encoding="UTF-8"?>
<svg xmlns="http://www.w3.org/2000/svg" xmlns:xlink="http://www.w3.org/1999/xlink" width="100px" height="71px" viewBox="0 0 100 71" version="1.1">
<g id="surface1">
<path style=" stroke:none;fill-rule:nonzero;fill:rgb(0%,0%,0%);fill-opacity:1;" d="M 67.042969 39.527344 C 66.980469 39.5625 66.960938 39.644531 67 39.707031 C 68.5625 42.125 71.367188 43.488281 74.238281 43.195312 C 75.347656 43.082031 76.398438 42.734375 77.367188 42.160156 C 80.242188 40.457031 81.6875 37.082031 80.976562 33.839844 C 80.957031 33.753906 80.859375 33.710938 80.78125 33.757812 L 74.585938 37.425781 L 74.527344 37.460938 C 74.464844 37.496094 74.386719 37.476562 74.351562 37.414062 L 74.316406 37.355469 L 73.453125 35.882812 C 73.414062 35.820312 73.335938 35.800781 73.273438 35.835938 Z M 67.042969 39.527344 "/>
<path style=" stroke:none;fill-rule:nonzero;fill:rgb(0%,0%,0%);fill-opacity:1;" d="M 65.941406 37.15625 C 65.957031 37.242188 66.054688 37.28125 66.132812 37.238281 L 72.328125 33.570312 L 72.386719 33.535156 C 72.449219 33.5 72.527344 33.519531 72.5625 33.578125 L 72.597656 33.640625 L 73.460938 35.113281 C 73.496094 35.175781 73.578125 35.195312 73.640625 35.160156 L 79.871094 31.46875 C 79.933594 31.433594 79.953125 31.347656 79.914062 31.285156 C 78.351562 28.871094 75.546875 27.511719 72.679688 27.804688 C 71.570312 27.917969 70.519531 28.265625 69.550781 28.835938 C 66.671875 30.542969 65.230469 33.914062 65.941406 37.15625 Z M 65.941406 37.15625 "/>
<path style=" stroke:none;fill-rule:nonzero;fill:rgb(0%,0%,0%);fill-opacity:1;" d="M 41.707031 28.261719 C 41.636719 28.261719 41.578125 28.320312 41.578125 28.390625 L 41.578125 42.613281 C 41.578125 42.683594 41.636719 42.738281 41.707031 42.738281 L 46.433594 42.738281 C 46.503906 42.738281 46.558594 42.683594 46.558594 42.613281 L 46.558594 28.390625 C 46.558594 28.320312 46.503906 28.261719 46.433594 28.261719 Z M 41.707031 28.261719 "/>
<path style=" stroke:none;fill-rule:nonzero;fill:rgb(0%,0%,0%);fill-opacity:1;" d="M 54.167969 35.09375 L 54.078125 35.222656 L 48.945312 42.539062 C 48.886719 42.621094 48.949219 42.738281 49.046875 42.738281 L 54.195312 42.738281 C 54.238281 42.738281 54.277344 42.714844 54.300781 42.679688 L 56.703125 38.960938 L 56.890625 38.671875 L 57.078125 38.960938 L 59.507812 42.679688 C 59.53125 42.714844 59.570312 42.738281 59.609375 42.738281 L 64.761719 42.738281 C 64.863281 42.738281 64.921875 42.621094 64.863281 42.539062 L 59.734375 35.222656 L 59.644531 35.09375 L 59.734375 34.964844 L 64.289062 28.460938 C 64.347656 28.375 64.289062 28.261719 64.1875 28.261719 L 59.0625 28.261719 C 59.019531 28.261719 58.980469 28.28125 58.957031 28.320312 L 57.078125 31.253906 L 56.886719 31.546875 L 56.703125 31.25 L 54.847656 28.320312 C 54.824219 28.28125 54.785156 28.261719 54.742188 28.261719 L 49.625 28.261719 C 49.519531 28.261719 49.460938 28.375 49.519531 28.457031 L 54.074219 34.960938 Z M 54.167969 35.09375 "/>
<path style=" stroke:none;fill-rule:nonzero;fill:rgb(0%,0%,0%);fill-opacity:1;" d="M 18.96875 28.261719 C 18.898438 28.261719 18.84375 28.316406 18.84375 28.386719 L 18.84375 42.609375 C 18.84375 42.679688 18.898438 42.738281 18.96875 42.738281 L 23.695312 42.738281 C 23.765625 42.738281 23.820312 42.679688 23.820312 42.609375 L 23.820312 34.714844 L 27.707031 39.359375 C 27.757812 39.421875 27.847656 39.421875 27.898438 39.359375 L 31.785156 34.691406 L 31.785156 42.609375 C 31.785156 42.679688 31.839844 42.738281 31.910156 42.738281 L 36.636719 42.738281 C 36.707031 42.738281 36.761719 42.679688 36.761719 42.609375 L 36.761719 28.386719 C 36.761719 28.316406 36.707031 28.261719 36.636719 28.261719 L 31.167969 28.261719 C 31.132812 28.261719 31.097656 28.277344 31.074219 28.308594 L 27.976562 32.101562 L 27.804688 32.3125 L 27.632812 32.101562 L 24.535156 28.308594 C 24.511719 28.277344 24.476562 28.261719 24.4375 28.261719 Z M 18.96875 28.261719 "/>
</g>
</svg>
