<svg xmlns="http://www.w3.org/2000/svg" viewBox="0 0 128 145" width="100%" version="1.0">
  <path
    d="M32 17C16.9 25.7 3.5 34.1 2.2 35.6l-2.3 2.6.3 34.4.3 34.4 2.5 2.4c2.8 2.8 51.3 31.1 57.1 33.4 3.6 1.4 4.1 1.3 8.7-1.1 14.7-7.7 52.1-30.2 54.5-32.7l2.7-3V38l-2.7-2.9c-1.6-1.6-15-10-29.9-18.5C73 4.9 65.4 1 62.9 1S52.5 5.1 32 17zm39.4 6c3.8.6 9.8 2.4 13.3 4.1 6.4 3 19.3 14 19.3 16.4C104 44.6 83.8 57 82.2 57c-.4 0-2.5-1.4-4.7-3.1-2.2-1.6-6.3-3.7-9.1-4.5-6.6-1.9-12.8-.5-19.1 4.3-2.5 1.9-5 3.3-5.7 3.1-.6-.2-5.5-2.8-10.9-5.8-7-4-9.7-6-9.7-7.5 0-3 10.8-12.6 18.5-16.4 9.5-4.7 17.8-5.8 29.9-4.1zm39.2 35.8c2.4 8.1 1.6 23.9-1.6 31.2-5.3 12.4-13.6 21.3-24.7 26.6-3.9 1.9-9.5 3.7-12.2 4.1l-5.1.6V96.5l6-2.8C83.1 89 87.8 80.2 86.6 68.8l-.7-5.7 10.3-6c11.7-6.8 12-6.8 14.4 1.7zm-80-1.2 9.5 5.6-.7 5.8c-1.2 11 5 21.7 15 25.5l4.6 1.8v25l-5.1-.6c-8.3-1-18.9-6.9-26.2-14.6C18.1 95.9 14 85.7 14 71.9c0-6.3 1.9-16.2 3.7-19.2.9-1.6 3.8-.5 12.9 4.9z" />
</svg>