<svg xmlns="http://www.w3.org/2000/svg" viewBox="0 0 150 155" width="100%" version="1.0">
  <path
    d="M60.5 2.4C36.9 7.1 18.9 21 8.5 42.5.9 58.3-.9 74.3 3 90.7c6.5 27.2 27.1 47.8 54.2 54.3 36.3 8.7 73.4-12.4 85.5-48.5 2.4-7.2 2.7-9.5 2.7-22.5 0-13.7-.2-15-3.1-23.3-6.9-19.5-19-33.1-37.8-42.4-12.4-6.2-30.3-8.6-44-5.9zm17.7 11.3c1.6 1.4 1.8 3.4 1.8 16.9 0 12.5.3 15.5 1.6 16.8 2 2 3.3 2 5.6-.1 1.3-1.2 1.8-3.1 1.8-7.1 0-5.9 1.8-9.2 5.1-9.2 4 0 4.9 3.5 4.9 20.2 0 14.7.1 15.8 2 16.8 1.4.8 2.6.8 4 0 1.8-.9 2-2.1 2-9.4 0-9.6 1.2-11.7 5.5-9.8L115 50l-.2 24.1c-.3 21.8-.5 24.3-2 25.3-1.3.8-2.3.8-3.5 0-1.4-.9-1.9-2.7-2.1-8-.4-11.1-1.6-13.4-6.3-11.9-1.8.6-1.9 1.9-1.9 17.2 0 17.9-.6 20.3-5.5 20.3-3.4 0-4.5-2-4.5-8.3 0-3.2-.5-6.7-1-7.8-1.4-2.5-5.6-2.5-7 0-.5 1.1-1 8.5-1 17v15l-2.6 2c-3.4 2.7-5 2.6-7.9-.4-2.4-2.3-2.5-2.8-2.5-17.8C67 101 66.5 99 62.9 99c-3.4 0-4.9 2.8-4.9 9.4 0 6.6-1.1 8.6-4.5 8.6-4.1 0-4.5-1.6-4.5-18.5 0-18-.6-20.3-5.3-19.1-2.6.6-2.7.9-2.7 7 0 9.5-.8 12.5-3.6 13.2-5.2 1.3-5.4.1-5.4-25.7 0-22.8.1-23.9 2-24.9 2.6-1.4 5.8.2 6.5 3.3.3 1.2.6 5.1.7 8.7.3 5.9.5 6.5 2.6 6.8 4.7.7 5.2-.9 5.2-17.5 0-8.7.4-16.3 1-17.4 1.2-2.1 5-2.5 6.8-.7.7.7 1.2 3.8 1.2 7 0 4.5.5 6.3 2 7.8 2.3 2.3 3 2.4 5.3.7 1.3-1 1.6-3.7 1.9-16.8.2-11.4.7-16 1.7-17.2 1.7-2.2 6.9-2.2 9.3 0zm52.6 53.1c.6.9 1.2 4.2 1.2 7.4 0 6.3-2.4 10.2-5.8 9.6-1.4-.3-1.8-1.8-2-8.7-.2-5 .2-8.8.8-9.6 1.3-1.6 3.9-.9 5.8 1.3zm-107 6.8c.3 9.4-.9 11.6-5.3 9.6-2.4-1.1-2.5-1.6-2.5-9 0-4.3.3-8.2.7-8.6.4-.4 2.1-.6 3.8-.4l3 .3.3 8.1z" />
  <path d="M70.9 69.4C66 71.8 68.1 80 73.6 80c3.1 0 5.4-2.6 5.4-5.9 0-4.4-4.1-6.7-8.1-4.7z" />
</svg>