<svg xmlns="http://www.w3.org/2000/svg" viewBox="0 0 150 150" width="100%" version="1.0">
  <path
    d="M59.9 2.5c-14.4 2.9-27 9.6-37.4 20-32.8 32.8-26.8 88.2 12.1 113.1 22.4 14.3 52.5 15 75.4 1.7 3.6-2.1 10.4-7.6 15.1-12.3 7.4-7.3 9.3-10 13.2-18 4-8.4 5.2-11.9 7.3-22 .3-1.4.5-6.6.4-11.7-.4-45.4-42-79.6-86.1-70.8zm26.3 13c17.6 3.7 32.7 15.6 41.3 32.4 6.5 12.9 7.8 30.9 3.1 44.6-8.6 25-31.2 41.5-57 41.5-25.1 0-46.5-14.8-55.8-38.5-4-10.2-5-25.3-2.4-35.4C23.6 28 54.3 8.7 86.2 15.5z" />
  <path
    d="M62 27.8c-3.6.9-8.7 3-11.4 4.6C45.5 35.4 38 41.7 38 43c0 .4 4.1 3.3 9 6.4l9 5.8 6.2-3.1c8.3-4.2 14.3-4.2 22.6 0 6.9 3.4 6.1 3.6 17.5-3.9 3.7-2.5 6.7-4.8 6.7-5.2 0-1.5-9-9-13.9-11.4-6.1-3.1-16-5.6-22.1-5.5-2.5 0-7.4.8-11 1.7zM28.3 59.7c-2.4 7.9-2.4 22 0 29 1 2.9 2.1 5.3 2.4 5.3.9 0 31.2-19.4 31.2-20 .1-.6-28.1-18.8-30.3-19.6-1.1-.4-2 1-3.3 5.3zM101 63.5c-7.9 5.1-14.6 9.8-14.8 10.3-.2.7 28.9 20.2 30.2 20.2.3 0 1.3-2.1 2.3-4.8 1.3-3.5 1.8-7.4 1.8-15.2 0-7.8-.5-11.7-1.8-15.3-1-2.6-2.2-4.7-2.5-4.7-.4 0-7.2 4.3-15.2 9.5zM46.8 98.6c-4.9 3.1-8.8 5.9-8.8 6.4 0 1.8 8.9 9.2 14.4 11.9 18.3 8.8 38 6.1 53.2-7.4 2.7-2.4 4.7-4.5 4.4-4.8-.3-.2-4.5-3-9.4-6.1l-8.9-5.7-6.4 3.1c-5.8 2.9-7.2 3.2-13.3 2.8-5.2-.3-7.6-.9-10.8-3.1-2.3-1.5-4.5-2.7-4.9-2.7-.5 0-4.7 2.5-9.5 5.6z" />
</svg>