<svg xmlns="http://www.w3.org/2000/svg" viewBox="0 0 150 145" width="100%" version="1.0">
  <path
    d="M68 3.6c-1.4 3.6-4.3 20.9-8.5 50.4-2.1 14-4.1 25.9-4.5 26.4-.5.4-1.1-1.1-1.4-3.5C50.8 56 47.9 38 47.1 35.7c-1.3-3.5-4.7-3.6-6.2-.3-.7 1.4-2.8 10.1-4.8 19.6-2 9.4-4.1 17.1-4.6 17.1s-2.1-4-3.6-9c-2.8-9.7-4.1-12.1-7-12.1-2 0-4.8 4.8-8.9 15.5-3.1 8.1-3.7 8.6-6.5 5.1C2.8 68.2 1 68.9 1 73.4 1 77.1 6.3 83 9.6 83c2 0 4.9-5.2 9.4-16.8.7-1.8 1.6-2.9 2.1-2.5.4.4 1.9 5.5 3.4 11.2 4 16.1 5.5 18.7 9.1 16.3 1.5-.9 3.7-8.9 6.4-22.7 3.4-17.5 3.5-17.6 5-6.4 4.7 35.8 6 44.6 6.5 46.2.7 1.8 3.2 2.2 5.1.9 1-.6 5.4-27.5 9.9-60.7.9-6.6 1.9-12.7 2.3-13.5 1.2-3.2 2 10.7 2.1 40 .1 16.8.6 37.9 1.1 46.9.7 14 1.1 16.7 2.6 17.8 1.5 1.1 2 1 3.4-.2 2.2-2 3.7-9.2 10.4-49.3 3-17.8 5.7-32.7 6-33 1.2-1.1 1.5.7 3.1 14.8 3.3 31.3 4.1 35 7.4 35 2.8 0 3.2-1 8.6-21.3 2.7-9.8 5.2-17.4 5.5-17 .4.4 1.5 3.9 2.4 7.8 2.5 10.4 3.5 12.5 6.1 12.5 3.1 0 4-1.3 7.3-11.3 1.7-4.9 3.3-9.1 3.6-9.4.3-.4 1.7.4 3 1.6 3 2.8 4.6 2 4.6-2.3 0-2.3-.9-4.1-3.3-6.4-5.5-5.4-7.4-4.1-11.7 7.6-1.3 3.5-2.6 5.9-3.1 5.5-.4-.4-1.5-4.6-2.4-9.2-2.2-11-3.2-13.1-6.2-13.1-3.2 0-4.7 3.7-11.3 28.7-.6 2.4-1.4 4.3-1.9 4.3-.4 0-1.1-4.2-1.5-9.3-1.1-15.2-4.6-38-6.2-40.5-2.4-3.7-5-2.8-6.7 2.3-.9 2.5-3.7 17-6.2 32.3-2.6 15.2-5.3 29.7-5.9 32.2-1.4 5-1.4 5.3-3.5-66-.5-17.3-1.3-32.3-1.6-33.3C73.4 0 69.1.5 68 3.6z" />
</svg>