<svg xmlns="http://www.w3.org/2000/svg" viewBox="0 0 150 150" width="100%" version="1.0">
  <path
    d="M44.5 10C20.3 14.9.4 19 .2 19c-.1 0-.1 24.2 0 53.7l.3 53.8 8.5 1.7c43.9 8.8 80.4 15.7 81.1 15.2.5-.3.9-3.1.9-6.2.1-5.1.2-5.5 1.5-3.8 1.3 1.7 1.6 1.7 6.7.1 20.2-6.7 35.2-22.3 41.4-43.1 2.8-9.4 2.4-24.8-.9-35-6.3-19.3-20.7-33.5-40.5-40L91 12.7V6.8c0-4-.4-5.8-1.2-5.7-.7 0-21.1 4-45.3 8.9zm12.6 31.1c12.2 6.2 20.2 21.5 18.5 35.5-2.6 22.1-21.7 36.6-40.9 31-15.1-4.4-26-21.5-24.3-38.1 1.2-11.7 9.7-24.5 19.3-29 4.6-2.2 14.4-3.3 19.6-2.3 2.2.5 5.7 1.8 7.8 2.9z" />
  <path
    d="M33.5 48.4c-5.9 2.2-13 10.3-14.5 16.7-1.6 6.5-.8 15.4 1.8 20.5 11.3 22.2 41.9 15.2 43.9-10.1.6-6.5-1-14-3-14.8-.7-.3-3 1.1-5 2.9-3.4 3.2-3.7 3.8-3.1 7.3 1.3 7.8-4.5 16.2-12 17.6-7.2 1.4-14.4-4.8-15.4-13-.6-5.9.3-8.8 3.9-13 3.7-4.2 8.5-5.7 13.5-4.3 3.4.9 3.9.7 7.5-2.8l3.9-3.8-3-1.9c-4-2.5-13.3-3.2-18.5-1.3z" />
  <path d="M35 68c-2.6 2.6-2.6 8.1 0 10.5 2.7 2.4 7 2.2 9.2-.5 2.4-2.9 2.3-6.1-.3-9.4-2.5-3.1-6.1-3.4-8.9-.6z" />
</svg>